<svg xmlns="http://www.w3.org/2000/svg" viewBox="114.72 181.5 345.55999999999995 212"><rect height="100%" width="100%" x="114.72" y="181.5" fill="rgba(34, 35, 37, 1)"></rect><svg xmlns="http://www.w3.org/2000/svg" xmlns:xlink="http://www.w3.org/1999/xlink" id="Layer_1" x="184" y="251" viewBox="0 0 117 117" xml:space="preserve" height="72" width="72" preserveAspectRatio="xMinYMin" style="overflow: visible;"><path class="st0" d="M61.9,34.4h20.6v20.6H61.9V34.4z M82.6,61.9v20.6H61.9V61.9H82.6z M55.1,82.6H34.4V61.9h20.6V82.6z M34.4,55.1  V34.4h20.6v20.6H34.4z" style="fill: #f7ddac; fill-opacity: 1;"></path><path class="st0" d="M61.9,0H117v27.5H61.9V0z M117,61.9V117H89.5V61.9H117z M55.1,117H0l0-27.5h55.1V117z M0,55.1L0,0l27.5,0v55.1  H0z" style="fill: #f7ddac; fill-opacity: 1;"></path><path class="st0" d="M89.5,34.4H117v20.6H89.5V34.4z M82.6,89.5V117H61.9V89.5H82.6z M27.5,82.6H0V61.9h27.5V82.6z M34.4,27.5V0  h20.6v27.5H34.4z" style="fill: #f7ddac; fill-opacity: 1;"></path></svg><svg xmlns="http://www.w3.org/2000/svg" x="289" y="298" viewBox="0.8300000429153442 3.7300000190734863 97.75999450683594 16.810001373291016" height="16" width="97" style="overflow: visible;"><g fill="#f7ddac" fill-opacity="1" style=""><path d="M3.43 10.84L3.43 9.51L4.65 9.51Q5.80 9.49 6.46 8.90Q7.12 8.31 7.12 7.31L7.12 7.31Q7.12 5.06 4.88 5.06L4.88 5.06Q3.82 5.06 3.19 5.66Q2.57 6.27 2.57 7.26L2.57 7.26L0.94 7.26Q0.94 5.74 2.05 4.73Q3.16 3.73 4.88 3.73L4.88 3.73Q6.69 3.73 7.72 4.68Q8.75 5.64 8.75 7.35L8.75 7.35Q8.75 8.18 8.20 8.96Q7.66 9.75 6.73 10.13L6.73 10.13Q7.79 10.47 8.36 11.24Q8.94 12.01 8.94 13.13L8.94 13.13Q8.94 14.85 7.81 15.86Q6.69 16.88 4.89 16.88Q3.08 16.88 1.96 15.90Q0.83 14.92 0.83 13.32L0.83 13.32L2.46 13.32Q2.46 14.33 3.12 14.94Q3.78 15.55 4.89 15.55L4.89 15.55Q6.06 15.55 6.69 14.93Q7.31 14.32 7.31 13.17L7.31 13.17Q7.31 12.05 6.63 11.45Q5.94 10.85 4.65 10.84L4.65 10.84L3.43 10.84ZM17.26 3.89L17.55 3.89L17.55 5.27L17.25 5.27Q15.35 5.31 14.23 6.40Q13.10 7.49 12.93 9.47L12.93 9.47Q13.94 8.31 15.69 8.31L15.69 8.31Q17.36 8.31 18.36 9.48Q19.35 10.66 19.35 12.52L19.35 12.52Q19.35 14.50 18.28 15.69Q17.20 16.88 15.39 16.88L15.39 16.88Q13.55 16.88 12.41 15.46Q11.27 14.05 11.27 11.83L11.27 11.83L11.27 11.21Q11.27 7.67 12.77 5.81Q14.28 3.94 17.26 3.89L17.26 3.89ZM15.42 9.66L15.42 9.66Q14.58 9.66 13.88 10.16Q13.17 10.66 12.90 11.42L12.90 11.42L12.90 12.01Q12.90 13.60 13.61 14.56Q14.33 15.53 15.39 15.53L15.39 15.53Q16.49 15.53 17.12 14.72Q17.75 13.91 17.75 12.60L17.75 12.60Q17.75 11.29 17.11 10.47Q16.47 9.66 15.42 9.66ZM23.33 10.62L22.03 10.28L22.68 3.90L29.23 3.90L29.23 5.41L24.06 5.41L23.67 8.89Q24.61 8.34 25.80 8.34L25.80 8.34Q27.55 8.34 28.58 9.50Q29.61 10.65 29.61 12.62L29.61 12.62Q29.61 14.60 28.54 15.74Q27.47 16.88 25.56 16.88L25.56 16.88Q23.86 16.88 22.79 15.93Q21.72 14.99 21.57 13.33L21.57 13.33L23.11 13.33Q23.26 14.43 23.89 14.99Q24.52 15.55 25.56 15.55L25.56 15.55Q26.69 15.55 27.34 14.77Q27.98 14.00 27.98 12.64L27.98 12.64Q27.98 11.36 27.29 10.58Q26.59 9.80 25.43 9.80L25.43 9.80Q24.36 9.80 23.76 10.27L23.76 10.27L23.33 10.62ZM44.04 11.90L44.04 12.05Q44.04 14.22 43.05 15.55Q42.06 16.88 40.36 16.88L40.36 16.88Q38.63 16.88 37.63 15.78L37.63 15.78L37.63 20.36L36.01 20.36L36.01 7.19L37.49 7.19L37.57 8.24Q38.57 7.01 40.33 7.01L40.33 7.01Q42.05 7.01 43.04 8.31Q44.04 9.60 44.04 11.90L44.04 11.90ZM42.42 11.87L42.42 11.87Q42.42 10.26 41.73 9.33Q41.04 8.39 39.85 8.39L39.85 8.39Q38.37 8.39 37.63 9.70L37.63 9.70L37.63 14.25Q38.36 15.55 39.87 15.55L39.87 15.55Q41.04 15.55 41.73 14.62Q42.42 13.69 42.42 11.87ZM50.70 7.14L50.70 8.65Q50.33 8.59 49.90 8.59L49.90 8.59Q48.30 8.59 47.73 9.95L47.73 9.95L47.73 16.70L46.11 16.70L46.11 7.19L47.69 7.19L47.72 8.29Q48.52 7.01 49.98 7.01L49.98 7.01Q50.46 7.01 50.70 7.14L50.70 7.14ZM51.59 11.97L51.59 11.86Q51.59 10.46 52.14 9.34Q52.69 8.23 53.67 7.62Q54.65 7.01 55.91 7.01L55.91 7.01Q57.85 7.01 59.05 8.36Q60.25 9.70 60.25 11.94L60.25 11.94L60.25 12.05Q60.25 13.44 59.72 14.54Q59.19 15.64 58.20 16.26Q57.21 16.88 55.92 16.88L55.92 16.88Q53.99 16.88 52.79 15.53Q51.59 14.19 51.59 11.97L51.59 11.97ZM53.23 12.05L53.23 12.05Q53.23 13.63 53.96 14.59Q54.69 15.55 55.92 15.55L55.92 15.55Q57.16 15.55 57.89 14.58Q58.62 13.61 58.62 11.86L58.62 11.86Q58.62 10.29 57.88 9.32Q57.14 8.35 55.91 8.35L55.91 8.35Q54.70 8.35 53.96 9.31Q53.23 10.27 53.23 12.05ZM62.34 7.19L63.97 7.19L63.97 17.80Q63.97 20.54 61.48 20.54L61.48 20.54Q60.94 20.54 60.49 20.38L60.49 20.38L60.49 19.08Q60.77 19.15 61.22 19.15L61.22 19.15Q61.77 19.15 62.06 18.86Q62.34 18.56 62.34 17.83L62.34 17.83L62.34 7.19ZM62.17 4.67L62.17 4.67Q62.17 4.28 62.42 4.00Q62.66 3.73 63.12 3.73L63.12 3.73Q63.60 3.73 63.84 4.00Q64.09 4.27 64.09 4.67Q64.09 5.06 63.84 5.33Q63.60 5.59 63.12 5.59Q62.65 5.59 62.41 5.33Q62.17 5.06 62.17 4.67ZM70.53 16.88L70.53 16.88Q68.60 16.88 67.39 15.60Q66.17 14.33 66.17 12.21L66.17 12.21L66.17 11.91Q66.17 10.49 66.71 9.38Q67.25 8.27 68.23 7.64Q69.20 7.01 70.33 7.01L70.33 7.01Q72.18 7.01 73.21 8.24Q74.24 9.46 74.24 11.73L74.24 11.73L74.24 12.41L67.80 12.41Q67.83 13.82 68.62 14.68Q69.41 15.55 70.62 15.55L70.62 15.55Q71.48 15.55 72.08 15.20Q72.68 14.84 73.13 14.26L73.13 14.26L74.12 15.04Q72.92 16.88 70.53 16.88ZM70.33 8.35L70.33 8.35Q69.35 8.35 68.68 9.07Q68.01 9.78 67.85 11.07L67.85 11.07L72.62 11.07L72.62 10.95Q72.54 9.71 71.95 9.03Q71.35 8.35 70.33 8.35ZM79.94 15.55L79.94 15.55Q80.81 15.55 81.46 15.02Q82.11 14.49 82.18 13.70L82.18 13.70L83.72 13.70Q83.67 14.52 83.15 15.26Q82.63 16.00 81.77 16.44Q80.90 16.88 79.94 16.88L79.94 16.88Q77.99 16.88 76.85 15.58Q75.70 14.28 75.70 12.03L75.70 12.03L75.70 11.76Q75.70 10.37 76.21 9.29Q76.72 8.21 77.67 7.61Q78.63 7.01 79.93 7.01L79.93 7.01Q81.53 7.01 82.59 7.97Q83.65 8.93 83.72 10.46L83.72 10.46L82.18 10.46Q82.11 9.54 81.48 8.94Q80.85 8.35 79.93 8.35L79.93 8.35Q78.69 8.35 78.01 9.24Q77.33 10.13 77.33 11.82L77.33 11.82L77.33 12.13Q77.33 13.77 78.00 14.66Q78.68 15.55 79.94 15.55ZM86.12 4.89L87.75 4.89L87.75 7.19L89.53 7.19L89.53 8.45L87.75 8.45L87.75 14.34Q87.75 14.92 87.99 15.20Q88.22 15.49 88.80 15.49L88.80 15.49Q89.08 15.49 89.57 15.38L89.57 15.38L89.57 16.70Q88.93 16.88 88.32 16.88L88.32 16.88Q87.23 16.88 86.68 16.22Q86.12 15.56 86.12 14.34L86.12 14.34L86.12 8.45L84.39 8.45L84.39 7.19L86.12 7.19L86.12 4.89ZM96.96 14.18L96.96 14.18Q96.96 13.52 96.46 13.15Q95.97 12.79 94.73 12.52Q93.50 12.26 92.77 11.89Q92.05 11.52 91.70 11.01Q91.35 10.50 91.35 9.80L91.35 9.80Q91.35 8.63 92.34 7.82Q93.33 7.01 94.87 7.01L94.87 7.01Q96.49 7.01 97.49 7.85Q98.50 8.68 98.50 9.98L98.50 9.98L96.86 9.98Q96.86 9.32 96.30 8.83Q95.73 8.35 94.87 8.35L94.87 8.35Q93.98 8.35 93.48 8.74Q92.98 9.12 92.98 9.75L92.98 9.75Q92.98 10.34 93.45 10.63Q93.91 10.93 95.13 11.21Q96.35 11.48 97.10 11.86Q97.86 12.23 98.22 12.77Q98.59 13.30 98.59 14.06L98.59 14.06Q98.59 15.34 97.57 16.11Q96.55 16.88 94.92 16.88L94.92 16.88Q93.78 16.88 92.90 16.47Q92.02 16.07 91.52 15.34Q91.03 14.62 91.03 13.77L91.03 13.77L92.65 13.77Q92.70 14.59 93.31 15.07Q93.92 15.55 94.92 15.55L94.92 15.55Q95.84 15.55 96.40 15.17Q96.96 14.80 96.96 14.18Z" transform="translate(0, 0)"></path></g></svg><svg xmlns="http://www.w3.org/2000/svg" x="288" y="263" viewBox="1.7400000095367432 6.970000267028809 101.97000122070312 22.650001525878906" height="22" width="101" style="overflow: visible;"><g fill="#f7ddac" fill-opacity="1" style=""><path d="M9.10 9.74Q12.21 9.74 14.53 10.98Q16.86 12.21 18.13 14.43Q19.40 16.66 19.40 19.57L19.40 19.57Q19.40 22.46 18.13 24.70Q16.86 26.94 14.52 28.17Q12.18 29.40 9.10 29.40L9.10 29.40L1.74 29.40L1.74 9.74L9.10 9.74ZM8.79 25.26Q11.51 25.26 13.02 23.77Q14.53 22.29 14.53 19.57L14.53 19.57Q14.53 16.86 13.02 15.34Q11.51 13.83 8.79 13.83L8.79 13.83L6.52 13.83L6.52 25.26L8.79 25.26ZM36.82 21.34Q36.82 22.01 36.74 22.74L36.74 22.74L25.90 22.74Q26.01 24.19 26.84 24.96Q27.66 25.73 28.87 25.73L28.87 25.73Q30.66 25.73 31.36 24.22L31.36 24.22L36.46 24.22Q36.06 25.76 35.04 26.99Q34.02 28.22 32.48 28.92Q30.94 29.62 29.04 29.62L29.04 29.62Q26.74 29.62 24.95 28.64Q23.16 27.66 22.15 25.84Q21.14 24.02 21.14 21.59L21.14 21.59Q21.14 19.15 22.13 17.33Q23.13 15.51 24.92 14.53Q26.71 13.55 29.04 13.55L29.04 13.55Q31.30 13.55 33.07 14.50Q34.83 15.46 35.83 17.22Q36.82 18.98 36.82 21.34L36.82 21.34ZM25.93 20.08L31.92 20.08Q31.92 18.84 31.08 18.12Q30.24 17.39 28.98 17.39L28.98 17.39Q27.78 17.39 26.95 18.09Q26.12 18.79 25.93 20.08L25.93 20.08ZM38.39 21.59Q38.39 19.15 39.38 17.33Q40.38 15.51 42.15 14.53Q43.93 13.55 46.23 13.55L46.23 13.55Q49.17 13.55 51.14 15.09Q53.12 16.63 53.73 19.43L53.73 19.43L48.64 19.43Q47.99 17.64 46.14 17.64L46.14 17.64Q44.83 17.64 44.04 18.66Q43.26 19.68 43.26 21.59L43.26 21.59Q43.26 23.49 44.04 24.51Q44.83 25.54 46.14 25.54L46.14 25.54Q47.99 25.54 48.64 23.74L48.64 23.74L53.73 23.74Q53.12 26.49 51.13 28.06Q49.14 29.62 46.23 29.62L46.23 29.62Q43.93 29.62 42.15 28.64Q40.38 27.66 39.38 25.84Q38.39 24.02 38.39 21.59L38.39 21.59ZM58.69 12.15Q57.43 12.15 56.63 11.41Q55.83 10.67 55.83 9.58L55.83 9.58Q55.83 8.46 56.63 7.71Q57.43 6.97 58.69 6.97L58.69 6.97Q59.92 6.97 60.72 7.71Q61.52 8.46 61.52 9.58L61.52 9.58Q61.52 10.67 60.72 11.41Q59.92 12.15 58.69 12.15L58.69 12.15ZM56.28 13.78L61.07 13.78L61.07 29.40L56.28 29.40L56.28 13.78ZM70.90 29.62Q68.85 29.62 67.26 28.92Q65.66 28.22 64.74 27.01Q63.81 25.79 63.70 24.28L63.70 24.28L68.43 24.28Q68.52 25.09 69.19 25.59Q69.86 26.10 70.84 26.10L70.84 26.10Q71.74 26.10 72.23 25.75Q72.72 25.40 72.72 24.84L72.72 24.84Q72.72 24.16 72.02 23.84Q71.32 23.52 69.75 23.13L69.75 23.13Q68.07 22.74 66.95 22.30Q65.83 21.87 65.02 20.93Q64.20 19.99 64.20 18.40L64.20 18.40Q64.20 17.05 64.95 15.95Q65.69 14.84 67.13 14.20Q68.57 13.55 70.56 13.55L70.56 13.55Q73.50 13.55 75.19 15.01Q76.89 16.46 77.14 18.87L77.14 18.87L72.72 18.87Q72.60 18.06 72.00 17.58Q71.40 17.11 70.42 17.11L70.42 17.11Q69.58 17.11 69.13 17.43Q68.68 17.75 68.68 18.31L68.68 18.31Q68.68 18.98 69.40 19.32Q70.11 19.66 71.62 19.99L71.62 19.99Q73.36 20.44 74.45 20.87Q75.54 21.31 76.37 22.27Q77.20 23.24 77.22 24.86L77.22 24.86Q77.22 26.24 76.45 27.31Q75.68 28.39 74.24 29.01Q72.80 29.62 70.90 29.62L70.90 29.62ZM82.57 12.15Q81.31 12.15 80.51 11.41Q79.72 10.67 79.72 9.58L79.72 9.58Q79.72 8.46 80.51 7.71Q81.31 6.97 82.57 6.97L82.57 6.97Q83.80 6.97 84.60 7.71Q85.40 8.46 85.40 9.58L85.40 9.58Q85.40 10.67 84.60 11.41Q83.80 12.15 82.57 12.15L82.57 12.15ZM80.16 13.78L84.95 13.78L84.95 29.40L80.16 29.40L80.16 13.78ZM95.54 29.62Q93.24 29.62 91.41 28.64Q89.57 27.66 88.52 25.84Q87.47 24.02 87.47 21.59L87.47 21.59Q87.47 19.18 88.54 17.35Q89.60 15.51 91.45 14.53Q93.30 13.55 95.59 13.55L95.59 13.55Q97.89 13.55 99.74 14.53Q101.58 15.51 102.65 17.35Q103.71 19.18 103.71 21.59L103.71 21.59Q103.71 24.00 102.63 25.83Q101.56 27.66 99.69 28.64Q97.83 29.62 95.54 29.62L95.54 29.62ZM95.54 25.48Q96.91 25.48 97.87 24.47Q98.84 23.46 98.84 21.59L98.84 21.59Q98.84 19.71 97.90 18.70Q96.96 17.70 95.59 17.70L95.59 17.70Q94.19 17.70 93.27 18.69Q92.34 19.68 92.34 21.59L92.34 21.59Q92.34 23.46 93.25 24.47Q94.16 25.48 95.54 25.48L95.54 25.48Z" transform="translate(0, 0)"></path></g></svg></svg>